<svg xmlns="http://www.w3.org/2000/svg" version="1.1" xmlns:xlink="http://www.w3.org/1999/xlink" xmlns:svgjs="http://svgjs.dev/svgjs" width="2000" height="1247" viewBox="0 0 2000 1247"><g transform="matrix(1,0,0,1,-1.2121212121212466,0.50513344736828)"><svg viewBox="0 0 396 247" data-background-color="#ff0000" preserveAspectRatio="xMidYMid meet" height="1247" width="2000" xmlns="http://www.w3.org/2000/svg" xmlns:xlink="http://www.w3.org/1999/xlink"><g id="tight-bounds" transform="matrix(1,0,0,1,0.2400000000000091,-0.09994750000001318)"><svg viewBox="0 0 395.52 247.2" height="247.2" width="395.52"><g><svg></svg></g><g><svg viewBox="0 0 395.52 247.2" height="247.2" width="395.52"><mask id="4b435c3a-9bda-46c1-8381-0834cc9fe90c"><rect width="395.52" height="247.2" fill="white"></rect><g transform="matrix(1,0,0,1,81.7269234174359,37.08)" id="clone"><svg viewBox="0 0 232.06615316512818 173.04" height="173.04" width="232.06615316512818"><g><svg viewBox="0 0 232.06615316512818 173.04" height="173.04" width="232.06615316512818"><g><svg viewBox="0 0 232.06615316512818 173.04" height="173.04" width="232.06615316512818"><g transform="matrix(1,0,0,1,102.33897367794872,0)"><svg viewBox="0 0 129.72717948717948 173.04" height="173.04" width="129.72717948717948"><g id="SvgjsG1995"><svg viewBox="0 0 129.72717948717948 173.04" height="173.04" width="129.72717948717948" id="SvgjsSvg1994"><g><svg viewBox="0 0 129.72717948717948 173.04" height="173.04" width="129.72717948717948"><g transform="matrix(1,0,0,1,0,0)"><svg width="129.72717948717948" viewBox="-1.55 -38.35 31.7 41.95" height="173.04" data-palette-color="#ffffff"><path d="M10.45 0.6Q7.55 0.6 4.75-0.25 1.95-1.1 1.45-2.1L1.45-2.1Q1.7-3.3 1.9-5.38 2.1-7.45 2.1-8.55L2.1-8.55Q2.5-8.9 3.25-8.9L3.25-8.9Q3.25-6.05 3.88-4.45 4.5-2.85 5.95-2.13 7.4-1.4 10.05-1.4L10.05-1.4Q14.75-1.4 17.88-3.38 21-5.35 21-9L21-9Q21-10.9 19.9-12.78 18.8-14.65 16-17.25L16-17.25 14.65-18.5Q12.05-20.85 10.83-22.58 9.6-24.3 9.6-26.75L9.6-26.75Q9.6-29.15 10.83-31.13 12.05-33.1 14.33-34.23 16.6-35.35 19.55-35.35L19.55-35.35Q22.45-35.35 24.5-34.35 26.55-33.35 27.15-32L27.15-32Q27.15-30.5 26.7-28.55 26.25-26.6 26.15-26.25L26.15-26.25Q25.5-26.25 24.9-26.45L24.9-26.45 25.05-27.45Q25.15-28.35 25.15-28.9L25.15-28.9Q25.15-31.2 23.93-32.23 22.7-33.25 20.1-33.25L20.1-33.25Q16.45-33.25 14.28-31.6 12.1-29.95 12.1-27.3L12.1-27.3Q12.1-25.25 13.4-23.58 14.7-21.9 17.4-19.5L17.4-19.5 18.45-18.55Q21.65-15.65 22.83-13.85 24-12.05 24-9.7L24-9.7Q24-6.3 21.93-3.98 19.85-1.65 16.73-0.53 13.6 0.6 10.45 0.6L10.45 0.6Z" opacity="1" transform="matrix(1,0,0,1,0,0)" fill="black" class="wordmark-text-0" id="SvgjsPath1993" stroke-width="5" stroke="black" stroke-linejoin="round"></path></svg></g></svg></g></svg></g></svg></g><g transform="matrix(1,0,0,1,0,34.71043828052291)"><svg viewBox="0 0 80.17139692307693 103.61912343895418" height="103.61912343895418" width="80.17139692307693"><g><svg xmlns="http://www.w3.org/2000/svg" xmlns:xlink="http://www.w3.org/1999/xlink" version="1.1" x="0" y="0" viewBox="15.183000000000003 4.999853236962562 69.635 90.00114676303744" enable-background="new 0 0 100 100" xml:space="preserve" height="103.61912343895418" width="80.17139692307693" class="icon-icon-0" data-fill-palette-color="accent" id="SvgjsSvg1992"><g fill="black" stroke-width="5" stroke="black" stroke-linejoin="round"><circle fill="black" cx="50" cy="72.537" r="1.8" stroke-width="5" stroke="black" stroke-linejoin="round"></circle><path fill="black" d="M39.106 25.903c0.205 0.205 0.417 0.306 0.62 0.271 0.098-0.018 0.187-0.065 0.267-0.14 0.986 3.067 2.876 7.224 5.26 9.048 1.374 1.05 2.911 1.693 4.534 1.693 1.659 0 3.228-0.672 4.624-1.764 2.342-1.833 4.195-5.949 5.169-8.977 0.08 0.075 0.169 0.123 0.268 0.14 0.174 0.03 0.356-0.04 0.533-0.19 0.446-0.378 0.864-1.261 1.056-2.333 0.25-1.398 0.025-2.624-0.5-2.869-0.038-0.018-0.078-0.032-0.12-0.039-0.162-0.028-0.332 0.033-0.499 0.163l-0.009 0.011c0-0.001-0.001-0.003-0.001-0.003-0.002 0.001-0.003 0.002-0.005 0.003-0.001-0.01-0.001-0.02-0.002-0.03-0.634-2.402-1.43-3.874-2.253-4.748-0.157-0.084-0.323-0.155-0.502-0.207-0.021 0.354 0.382 0.891 0.425 1.415-1.14-0.53-2.228-1.355-3.817-1.415-0.365-0.014-0.755-0.012-1.159-0.004-3.845 1.388-8.086-0.178-8.086-0.178-4.812-0.445-5.575 4.553-5.634 5.125-0.001 0.014-0.002 0.028-0.003 0.042l0-0.001c-0.171-0.137-0.345-0.201-0.512-0.173-0.073 0.014-0.142 0.043-0.205 0.089-0.153 0.109-0.275 0.312-0.363 0.579-0.047 0.674-0.071 1.356-0.082 2.06 0.009 0.06 0.018 0.12 0.029 0.18C38.315 24.654 38.693 25.491 39.106 25.903z" stroke-width="5" stroke="black" stroke-linejoin="round"></path><path fill="black" d="M48.034 52.492L48.034 52.492h3.434 3.682 11.645 8.339 2.005c-0.034-0.178-0.075-0.354-0.126-0.529-3.091-10.632-8.801-10.998-10.03-11.285-2.419-0.567-5.35-0.325-6.912-0.813-0.274 2.289-4.68 4.109-10.076 4.109-5.395 0-9.801-1.82-10.075-4.109-1.563 0.488-4.493 0.247-6.913 0.813-1.229 0.287-6.939 0.653-10.03 11.285-0.051 0.175-0.092 0.352-0.126 0.529h21.651H48.034z" stroke-width="5" stroke="black" stroke-linejoin="round"></path><path d="M37.994 27.074c1.073 2.888 2.772 6.79 4.872 8.841 1.189 1.161 2.506 2.082 3.911 2.638 0.966 0.384 1.973 0.596 3.009 0.596 1.035 0 2.042-0.212 3.008-0.596 1.454-0.577 2.814-1.541 4.035-2.759 2.049-2.046 3.705-5.906 4.757-8.745 0.809-0.237 1.657-1.753 2.003-3.689 0.375-2.1 0.023-3.933-0.785-4.242 0.029-0.511 0.045-1.031 0.043-1.56C62.828 9.944 58.363 5.518 51.322 5.045c-6.137-0.412-10.761 2.026-12.867 6.08-0.7 1.348-1.105 3.027-1.266 4.855-0.247 0.984-0.378 2.013-0.378 3.073h0.023c-0.001 0.008-0.001 0.016-0.002 0.024-0.015 0.002-0.03 0.003-0.045 0.005-0.898 0.156-1.307 2.071-0.913 4.278C36.236 25.389 37.151 26.956 37.994 27.074zM38.188 21.411c0.087-0.267 0.209-0.469 0.363-0.579 0.063-0.046 0.132-0.076 0.205-0.089 0.167-0.028 0.341 0.036 0.512 0.173l0 0.001c0.001-0.014 0.002-0.027 0.003-0.042 0.059-0.572 0.822-5.571 5.634-5.125 0 0 4.241 1.566 8.086 0.178 0.404-0.008 0.794-0.01 1.159 0.004 1.59 0.059 2.678 0.884 3.817 1.415-0.043-0.523-0.446-1.061-0.425-1.415 0.179 0.052 0.345 0.123 0.502 0.207 0.823 0.874 1.619 2.346 2.253 4.748 0.001 0.01 0.001 0.021 0.002 0.03 0.002-0.001 0.003-0.002 0.005-0.003 0 0 0.001 0.002 0.001 0.003l0.009-0.011c0.167-0.13 0.337-0.191 0.499-0.163 0.042 0.007 0.082 0.021 0.12 0.039 0.525 0.245 0.75 1.471 0.5 2.869-0.191 1.072-0.609 1.955-1.056 2.333-0.177 0.15-0.359 0.22-0.533 0.19-0.099-0.018-0.188-0.065-0.268-0.14-0.974 3.028-2.827 7.145-5.169 8.977-1.396 1.092-2.965 1.764-4.624 1.764-1.623 0-3.16-0.644-4.534-1.693-2.383-1.824-4.273-5.981-5.26-9.048-0.08 0.075-0.169 0.123-0.267 0.14-0.202 0.036-0.415-0.066-0.62-0.271-0.413-0.412-0.791-1.249-0.97-2.252-0.011-0.061-0.02-0.12-0.029-0.18C38.117 22.767 38.141 22.085 38.188 21.411z" fill="black" stroke-width="5" stroke="black" stroke-linejoin="round"></path><path fill="black" d="M77.829 92.143H22.171c-0.783 0-1.418 0.641-1.418 1.429 0 0.789 0.635 1.429 1.418 1.429h55.658c0.784 0 1.418-0.64 1.418-1.429C79.246 92.783 78.611 92.143 77.829 92.143z" stroke-width="5" stroke="black" stroke-linejoin="round"></path><path fill="black" d="M25.202 91.298h49.597c1.844 0 3.34-1.494 3.34-3.34l6.679-31.431c0-1.844-1.494-3.339-3.34-3.339h-4.34-2.005-8.339H55.149h-3.682-3.433-0.001-3.533H22.85h-4.327c-1.845 0-3.34 1.494-3.34 3.339l6.679 31.432C21.861 89.804 23.357 91.298 25.202 91.298zM50 70.762c0.98 0 1.774 0.795 1.774 1.775 0 0.979-0.794 1.774-1.774 1.774-0.98 0-1.775-0.795-1.775-1.774C48.225 71.557 49.02 70.762 50 70.762z" stroke-width="5" stroke="black" stroke-linejoin="round"></path></g></svg></g></svg></g></svg></g></svg></g></svg></g></mask><g mask="url(#4b435c3a-9bda-46c1-8381-0834cc9fe90c)"><g><path transform="translate(99.4301,243.07427) scale(6.87622,6.87622)" d="M10.45 0.6c-1.933 0-3.833-0.283-5.7-0.85-1.867-0.567-2.967-1.183-3.3-1.85v0c0.167-0.8 0.317-1.893 0.45-3.28 0.133-1.38 0.2-2.437 0.2-3.17v0c0.267-0.233 0.65-0.35 1.15-0.35v0c0 1.9 0.21 3.383 0.63 4.45 0.413 1.067 1.103 1.84 2.07 2.32 0.967 0.487 2.333 0.73 4.1 0.73v0c3.133 0 5.743-0.66 7.83-1.98 2.08-1.313 3.12-3.187 3.12-5.62v0c0-1.267-0.367-2.527-1.1-3.78-0.733-1.247-2.033-2.737-3.9-4.47v0l-1.35-1.25c-1.733-1.567-3.007-2.927-3.82-4.08-0.82-1.147-1.23-2.537-1.23-4.17v0c0-1.6 0.41-3.06 1.23-4.38 0.813-1.313 1.98-2.347 3.5-3.1 1.513-0.747 3.253-1.12 5.22-1.12v0c1.933 0 3.583 0.333 4.95 1 1.367 0.667 2.25 1.45 2.65 2.35v0c0 1-0.15 2.15-0.45 3.45-0.3 1.3-0.483 2.067-0.55 2.3v0c-0.433 0-0.85-0.067-1.25-0.2v0l0.15-1c0.067-0.6 0.1-1.083 0.1-1.45v0c0-1.533-0.407-2.643-1.22-3.33-0.82-0.68-2.097-1.02-3.83-1.02v0c-2.433 0-4.373 0.55-5.82 1.65-1.453 1.1-2.18 2.533-2.18 4.3v0c0 1.367 0.433 2.607 1.3 3.72 0.867 1.12 2.2 2.48 4 4.08v0l1.05 0.95c2.133 1.933 3.593 3.5 4.38 4.7 0.78 1.2 1.17 2.583 1.17 4.15v0c0 2.267-0.69 4.173-2.07 5.72-1.387 1.553-3.12 2.703-5.2 3.45-2.087 0.753-4.18 1.13-6.28 1.13z" fill="#ffffff" fill-rule="nonzero" stroke="none" stroke-width="1" stroke-linecap="butt" stroke-linejoin="miter" stroke-miterlimit="10" stroke-dasharray="" stroke-dashoffset="0" font-family="none" font-weight="none" font-size="none" text-anchor="none" style="mix-blend-mode: normal" data-fill-palette-color="tertiary"></path></g></g><g transform="matrix(1,0,0,1,81.7269234174359,37.08)"><svg viewBox="0 0 232.06615316512818 173.04" height="173.04" width="232.06615316512818"><g><svg viewBox="0 0 232.06615316512818 173.04" height="173.04" width="232.06615316512818"><g><svg viewBox="0 0 232.06615316512818 173.04" height="173.04" width="232.06615316512818"><g transform="matrix(1,0,0,1,102.33897367794872,0)"><svg viewBox="0 0 129.72717948717948 173.04" height="173.04" width="129.72717948717948"><g id="textblocktransform"><svg viewBox="0 0 129.72717948717948 173.04" height="173.04" width="129.72717948717948" id="textblock"><g><svg viewBox="0 0 129.72717948717948 173.04" height="173.04" width="129.72717948717948"><g transform="matrix(1,0,0,1,0,0)"><svg width="129.72717948717948" viewBox="-1.55 -38.35 31.7 41.95" height="173.04" data-palette-color="#ffffff"><path d="M10.45 0.6Q7.55 0.6 4.75-0.25 1.95-1.1 1.45-2.1L1.45-2.1Q1.7-3.3 1.9-5.38 2.1-7.45 2.1-8.55L2.1-8.55Q2.5-8.9 3.25-8.9L3.25-8.9Q3.25-6.05 3.88-4.45 4.5-2.85 5.95-2.13 7.4-1.4 10.05-1.4L10.05-1.4Q14.75-1.4 17.88-3.38 21-5.35 21-9L21-9Q21-10.9 19.9-12.78 18.8-14.65 16-17.25L16-17.25 14.65-18.5Q12.05-20.85 10.83-22.58 9.6-24.3 9.6-26.75L9.6-26.75Q9.6-29.15 10.83-31.13 12.05-33.1 14.33-34.23 16.6-35.35 19.55-35.35L19.55-35.35Q22.45-35.35 24.5-34.35 26.55-33.35 27.15-32L27.15-32Q27.15-30.5 26.7-28.55 26.25-26.6 26.15-26.25L26.15-26.25Q25.5-26.25 24.9-26.45L24.9-26.45 25.05-27.45Q25.15-28.35 25.15-28.9L25.15-28.9Q25.15-31.2 23.93-32.23 22.7-33.25 20.1-33.25L20.1-33.25Q16.45-33.25 14.28-31.6 12.1-29.95 12.1-27.3L12.1-27.3Q12.1-25.25 13.4-23.58 14.7-21.9 17.4-19.5L17.4-19.5 18.45-18.55Q21.65-15.65 22.83-13.85 24-12.05 24-9.7L24-9.7Q24-6.3 21.93-3.98 19.85-1.65 16.73-0.53 13.6 0.6 10.45 0.6L10.45 0.6Z" opacity="1" transform="matrix(1,0,0,1,0,0)" fill="#ffffff" class="wordmark-text-0" data-fill-palette-color="primary" id="text-0"></path></svg></g></svg></g></svg></g></svg></g><g transform="matrix(1,0,0,1,0,34.71043828052291)"><svg viewBox="0 0 80.17139692307693 103.61912343895418" height="103.61912343895418" width="80.17139692307693"><g><svg xmlns="http://www.w3.org/2000/svg" xmlns:xlink="http://www.w3.org/1999/xlink" version="1.1" x="0" y="0" viewBox="15.183000000000003 4.999853236962562 69.635 90.00114676303744" enable-background="new 0 0 100 100" xml:space="preserve" height="103.61912343895418" width="80.17139692307693" class="icon-icon-0" data-fill-palette-color="accent" id="icon-0"><g fill="#ffffff" data-fill-palette-color="accent"><circle fill="none" cx="50" cy="72.537" r="1.8"></circle><path fill="none" d="M39.106 25.903c0.205 0.205 0.417 0.306 0.62 0.271 0.098-0.018 0.187-0.065 0.267-0.14 0.986 3.067 2.876 7.224 5.26 9.048 1.374 1.05 2.911 1.693 4.534 1.693 1.659 0 3.228-0.672 4.624-1.764 2.342-1.833 4.195-5.949 5.169-8.977 0.08 0.075 0.169 0.123 0.268 0.14 0.174 0.03 0.356-0.04 0.533-0.19 0.446-0.378 0.864-1.261 1.056-2.333 0.25-1.398 0.025-2.624-0.5-2.869-0.038-0.018-0.078-0.032-0.12-0.039-0.162-0.028-0.332 0.033-0.499 0.163l-0.009 0.011c0-0.001-0.001-0.003-0.001-0.003-0.002 0.001-0.003 0.002-0.005 0.003-0.001-0.01-0.001-0.02-0.002-0.03-0.634-2.402-1.43-3.874-2.253-4.748-0.157-0.084-0.323-0.155-0.502-0.207-0.021 0.354 0.382 0.891 0.425 1.415-1.14-0.53-2.228-1.355-3.817-1.415-0.365-0.014-0.755-0.012-1.159-0.004-3.845 1.388-8.086-0.178-8.086-0.178-4.812-0.445-5.575 4.553-5.634 5.125-0.001 0.014-0.002 0.028-0.003 0.042l0-0.001c-0.171-0.137-0.345-0.201-0.512-0.173-0.073 0.014-0.142 0.043-0.205 0.089-0.153 0.109-0.275 0.312-0.363 0.579-0.047 0.674-0.071 1.356-0.082 2.06 0.009 0.06 0.018 0.12 0.029 0.18C38.315 24.654 38.693 25.491 39.106 25.903z"></path><path fill="#ffffff" d="M48.034 52.492L48.034 52.492h3.434 3.682 11.645 8.339 2.005c-0.034-0.178-0.075-0.354-0.126-0.529-3.091-10.632-8.801-10.998-10.03-11.285-2.419-0.567-5.35-0.325-6.912-0.813-0.274 2.289-4.68 4.109-10.076 4.109-5.395 0-9.801-1.82-10.075-4.109-1.563 0.488-4.493 0.247-6.913 0.813-1.229 0.287-6.939 0.653-10.03 11.285-0.051 0.175-0.092 0.352-0.126 0.529h21.651H48.034z" data-fill-palette-color="accent"></path><path d="M37.994 27.074c1.073 2.888 2.772 6.79 4.872 8.841 1.189 1.161 2.506 2.082 3.911 2.638 0.966 0.384 1.973 0.596 3.009 0.596 1.035 0 2.042-0.212 3.008-0.596 1.454-0.577 2.814-1.541 4.035-2.759 2.049-2.046 3.705-5.906 4.757-8.745 0.809-0.237 1.657-1.753 2.003-3.689 0.375-2.1 0.023-3.933-0.785-4.242 0.029-0.511 0.045-1.031 0.043-1.56C62.828 9.944 58.363 5.518 51.322 5.045c-6.137-0.412-10.761 2.026-12.867 6.08-0.7 1.348-1.105 3.027-1.266 4.855-0.247 0.984-0.378 2.013-0.378 3.073h0.023c-0.001 0.008-0.001 0.016-0.002 0.024-0.015 0.002-0.03 0.003-0.045 0.005-0.898 0.156-1.307 2.071-0.913 4.278C36.236 25.389 37.151 26.956 37.994 27.074zM38.188 21.411c0.087-0.267 0.209-0.469 0.363-0.579 0.063-0.046 0.132-0.076 0.205-0.089 0.167-0.028 0.341 0.036 0.512 0.173l0 0.001c0.001-0.014 0.002-0.027 0.003-0.042 0.059-0.572 0.822-5.571 5.634-5.125 0 0 4.241 1.566 8.086 0.178 0.404-0.008 0.794-0.01 1.159 0.004 1.59 0.059 2.678 0.884 3.817 1.415-0.043-0.523-0.446-1.061-0.425-1.415 0.179 0.052 0.345 0.123 0.502 0.207 0.823 0.874 1.619 2.346 2.253 4.748 0.001 0.01 0.001 0.021 0.002 0.03 0.002-0.001 0.003-0.002 0.005-0.003 0 0 0.001 0.002 0.001 0.003l0.009-0.011c0.167-0.13 0.337-0.191 0.499-0.163 0.042 0.007 0.082 0.021 0.12 0.039 0.525 0.245 0.75 1.471 0.5 2.869-0.191 1.072-0.609 1.955-1.056 2.333-0.177 0.15-0.359 0.22-0.533 0.19-0.099-0.018-0.188-0.065-0.268-0.14-0.974 3.028-2.827 7.145-5.169 8.977-1.396 1.092-2.965 1.764-4.624 1.764-1.623 0-3.16-0.644-4.534-1.693-2.383-1.824-4.273-5.981-5.26-9.048-0.08 0.075-0.169 0.123-0.267 0.14-0.202 0.036-0.415-0.066-0.62-0.271-0.413-0.412-0.791-1.249-0.97-2.252-0.011-0.061-0.02-0.12-0.029-0.18C38.117 22.767 38.141 22.085 38.188 21.411z" fill="#ffffff" data-fill-palette-color="accent"></path><path fill="#ffffff" d="M77.829 92.143H22.171c-0.783 0-1.418 0.641-1.418 1.429 0 0.789 0.635 1.429 1.418 1.429h55.658c0.784 0 1.418-0.64 1.418-1.429C79.246 92.783 78.611 92.143 77.829 92.143z" data-fill-palette-color="accent"></path><path fill="#ffffff" d="M25.202 91.298h49.597c1.844 0 3.34-1.494 3.34-3.34l6.679-31.431c0-1.844-1.494-3.339-3.34-3.339h-4.34-2.005-8.339H55.149h-3.682-3.433-0.001-3.533H22.85h-4.327c-1.845 0-3.34 1.494-3.34 3.339l6.679 31.432C21.861 89.804 23.357 91.298 25.202 91.298zM50 70.762c0.98 0 1.774 0.795 1.774 1.775 0 0.979-0.794 1.774-1.774 1.774-0.98 0-1.775-0.795-1.775-1.774C48.225 71.557 49.02 70.762 50 70.762z" data-fill-palette-color="accent"></path></g></svg></g></svg></g></svg></g></svg></g></svg></g></svg></g><defs></defs></svg><rect width="395.52" height="247.2" fill="none" stroke="none" visibility="hidden"></rect></g></svg></g></svg>